<svg width="150" height="49" viewBox="0 0 150 49" fill="none" xmlns="http://www.w3.org/2000/svg">
<g clip-path="url(#clip0_198_29)">
<path d="M93.3025 47.3321C91.8479 47.3321 90.5794 47.1506 89.4922 46.7898C87.1365 45.9933 84.7831 44.6682 82.4274 42.8075L80.2115 41.0399C81.3403 39.9961 82.298 38.7946 83.0848 37.4354C84.4203 35.0801 85.1008 32.6794 85.1274 30.2379L85.1574 30.34V7.51514H81.8671V21.3929C81.5759 21.0355 81.2143 20.6328 80.7637 20.1903C79.4155 18.8663 78.2948 18.1288 77.0794 17.5355C77.1568 16.0174 77.0205 14.7433 76.6647 13.7177C76.295 12.6524 75.7774 11.806 75.1119 11.1763C74.4464 10.5466 73.6701 10.0996 72.7828 9.83302C71.8955 9.5664 70.9839 9.43366 70.047 9.43366C69.4797 9.43366 68.8882 9.50627 68.2724 9.65149C67.6566 9.77289 67.0651 9.96576 66.4978 10.2324C65.9306 10.474 65.4014 10.777 64.9081 11.14C64.4402 11.5031 64.0335 11.9263 63.6881 12.4107C63.0469 11.2977 62.1723 10.5228 61.0632 10.0872C59.9784 9.65149 58.8323 9.43366 57.625 9.43366C56.5159 9.43366 55.4564 9.63901 54.4455 10.0509C53.4346 10.4627 52.5358 11.0436 51.7467 11.7935L51.0073 9.86932H48.2715V28.0221H51.8576V12.9916C52.4491 12.2655 53.1758 11.7084 54.0388 11.3215C54.9261 10.9097 55.8377 10.7044 56.7747 10.7044C57.3419 10.7531 57.871 10.9097 58.3644 11.1763C58.882 11.418 59.3383 11.806 59.7323 12.3381C60.1262 12.8702 60.4347 13.56 60.6565 14.4075C60.8784 15.255 60.965 16.2954 60.9153 17.5298V28.021C60.9153 28.021 60.9095 35.0325 60.9095 36.4813C60.9095 38.3658 61.4618 39.9621 62.7546 41.277C63.9989 42.5511 65.547 43.4327 67.3932 43.9307C68.6652 44.2949 69.9592 44.4764 71.2728 44.4764C73.9046 44.4764 76.2719 43.7969 78.3757 42.4343C79.9204 43.6834 81.2247 44.7102 82.2876 45.5134C83.3505 46.3201 84.5035 47.0167 85.7513 47.6078C87.8066 48.5347 89.7117 49.001 91.4666 49.001C93.9379 49.001 96.1896 48.1399 98.2206 46.4165L98.0497 46.1113C96.3398 46.9248 94.757 47.3332 93.3025 47.3332V47.3321ZM66.276 11.3942C67.213 10.9347 68.1858 10.7044 69.1967 10.7044C69.7639 10.7531 70.2931 10.9097 70.7864 11.1763C71.304 11.418 71.7603 11.806 72.1543 12.3381C72.5483 12.8702 72.8567 13.56 73.0785 14.4075C73.3004 15.255 73.387 16.2954 73.3373 17.5298V18.5656C71.6644 17.54 69.6426 17.2598 67.6624 17.8531C66.4458 18.2173 65.4026 18.8629 64.6124 19.6945V17.7113C64.7106 15.8722 64.5257 14.395 64.0578 13.282C64.6251 12.4595 65.3645 11.8298 66.276 11.3942ZM71.899 43.4225C69.8194 43.4225 67.9593 42.8075 66.3199 41.5856C64.3131 40.1096 63.3068 38.2864 63.3068 36.1069V28.0391C64.2507 29.2406 66.2414 32.2608 69.7847 35.2934C71.7707 36.993 74.3679 39.1588 77.5797 41.7876C75.8005 42.8756 73.9058 43.4213 71.899 43.4213V43.4225ZM79.4143 40.3943C76.4359 37.9233 73.8665 35.7665 71.7072 33.9308C69.7893 32.3005 68.3579 30.9118 67.4048 29.7659C65.331 27.2029 65.0329 25.6146 65.1935 23.4079C65.309 21.8173 66.5302 20.4467 68.3025 19.9146C70.1741 19.3541 72.0353 19.901 73.3385 21.3782C74.2042 22.4133 74.3237 22.702 74.8416 23.6178C76.3374 26.2627 77.0713 31.0491 77.0713 31.0491V28.6858C77.0713 28.6858 77.0713 28.6926 77.0713 28.696V22.1622V18.2049C78.6437 19.1647 79.9666 20.2697 81.0433 21.5155C82.4274 23.1288 83.3263 24.783 83.7422 26.4825C84.0218 27.5944 84.1581 28.7176 84.1581 29.8499C84.1581 32.2324 83.6058 34.4323 82.4979 36.4507C81.6868 37.9675 80.6621 39.2825 79.4143 40.3943Z" fill="white"/>
<path d="M83.5309 4.24775C84.1224 4.24775 84.6273 4.0424 85.0466 3.63055C85.466 3.21871 85.6751 2.72292 85.6751 2.14203C85.6751 1.56114 85.466 1.02904 85.0466 0.617194C84.6273 0.205353 84.1224 0 83.5309 0C82.9393 0 82.3975 0.205353 81.9781 0.617194C81.5587 1.02904 81.3496 1.53731 81.3496 2.14203C81.3496 2.74674 81.5587 3.21871 81.9781 3.63055C82.3975 4.0424 82.9151 4.24775 83.5309 4.24775Z" fill="white"/>
<path d="M107.17 0.999512H103.473V9.85806C102.807 9.301 102.007 8.87781 101.07 8.58737C100.133 8.29693 99.1346 8.1517 98.0752 8.1517C96.9164 8.1517 95.746 8.34571 94.563 8.73259C93.4042 9.09565 92.3448 9.67654 91.3835 10.4753C90.4466 11.2502 89.6829 12.2542 89.0914 13.4886C88.4999 14.723 88.2041 16.1991 88.2041 17.9179C88.2041 19.4666 88.4756 20.8223 89.0174 21.9841C89.5847 23.1221 90.3114 24.066 91.1987 24.8159C92.086 25.5659 93.0969 26.1354 94.2303 26.5223C95.3636 26.8854 96.4981 27.0669 97.6315 27.0669C98.7649 27.0669 99.8867 26.8854 100.922 26.5223C101.981 26.1593 102.894 25.6147 103.658 24.8886L104.36 26.5223H107.17V0.999512ZM103.473 23.872C102.881 24.4767 102.192 24.9373 101.402 25.2516C100.613 25.5421 99.8001 25.6873 98.9625 25.6873C98.1248 25.6873 97.2861 25.5296 96.4485 25.2153C95.6351 24.901 94.9084 24.4291 94.2672 23.7994C93.626 23.1697 93.0969 22.396 92.6775 21.4758C92.2835 20.5319 92.0733 19.4302 92.049 18.172C92.0247 16.502 92.2339 15.1099 92.6775 13.9969C93.1211 12.8839 93.7 11.9876 94.4151 11.3103C95.1302 10.633 95.9182 10.1485 96.7812 9.85806C97.6442 9.56762 98.4945 9.4224 99.3322 9.4224C100.269 9.4224 101.107 9.56762 101.846 9.85806C102.586 10.1247 103.127 10.4628 103.473 10.8746V23.872Z" fill="white"/>
<path d="M130.261 17.3735C130.261 15.776 129.953 14.3839 129.337 13.1983C128.721 12.0127 127.919 11.0325 126.934 10.2576C125.973 9.45884 124.876 8.86547 123.643 8.47859C122.411 8.09171 121.166 7.89771 119.909 7.89771C118.652 7.89771 117.445 8.09171 116.212 8.47859C114.98 8.86547 113.871 9.45884 112.885 10.2576C111.924 11.0325 111.135 12.0127 110.519 13.1983C109.903 14.3839 109.595 15.776 109.595 17.3735C109.595 18.9709 109.89 20.2904 110.482 21.476C111.098 22.6616 111.887 23.6668 112.848 24.4893C113.834 25.2881 114.943 25.9053 116.175 26.3409C117.408 26.7528 118.652 26.9581 119.909 26.9581C121.166 26.9581 122.411 26.7528 123.643 26.3409C124.9 25.9053 126.01 25.2881 126.971 24.4893C127.956 23.6668 128.745 22.6616 129.337 21.476C129.953 20.2904 130.261 18.9221 130.261 17.3735ZM125.714 20.3505C125.442 21.4397 125.024 22.4199 124.457 23.2913C123.915 24.1626 123.261 24.8649 122.497 25.397C121.734 25.9291 120.871 26.1957 119.909 26.1957C118.948 26.1957 118.037 25.9291 117.248 25.397C116.484 24.8649 115.83 24.1626 115.288 23.2913C114.771 22.4199 114.364 21.4397 114.068 20.3505C113.797 19.2375 113.674 18.1234 113.698 17.0104C113.698 16.1391 113.822 15.2189 114.068 14.2512C114.314 13.2584 114.684 12.3508 115.177 11.5283C115.695 10.6808 116.336 9.9796 117.1 9.42254C117.889 8.86547 118.825 8.58751 119.909 8.58751C120.994 8.58751 122.004 8.86547 122.793 9.42254C123.582 9.9796 124.222 10.6808 124.716 11.5283C125.209 12.3508 125.566 13.2584 125.788 14.2512C126.034 15.2189 126.157 16.1391 126.157 17.0104C126.157 18.1234 126.01 19.2375 125.714 20.3505Z" fill="white"/>
<path d="M149.002 8.40576L141.46 24.4528L133.992 8.40576H130.479L138.872 26.5222H141.608L150 8.40576H149.002Z" fill="white"/>
<path d="M21.8494 4.95674C20.8385 3.74618 19.5815 2.77841 18.0785 2.0523C16.5754 1.32619 14.8251 0.963135 12.8287 0.963135H0V26.5222H12.8287C14.8493 26.5222 16.6124 26.1592 18.1154 25.4331C19.6185 24.6831 20.8639 23.7142 21.8494 22.5286C22.8603 21.3181 23.6113 19.9509 24.1046 18.4261C24.6222 16.9013 24.8683 15.3401 24.844 13.7427C24.844 12.1452 24.5979 10.5841 24.1046 9.05927C23.6113 7.51061 22.8603 6.14235 21.8494 4.95674ZM20.1858 18.2446C19.7664 19.6242 19.1263 20.8461 18.2633 21.9114C17.4003 22.9768 16.3166 23.8356 15.0099 24.4891C13.7287 25.1188 12.2129 25.4092 10.4626 25.3605H3.62309V2.12491H10.4626C12.1875 2.1737 13.6917 2.5481 14.973 3.25038C16.2796 3.95267 17.3633 4.86031 18.2263 5.9733C19.1136 7.06247 19.7664 8.30933 20.1858 9.71277C20.6294 11.1162 20.8512 12.5446 20.8512 13.9968C20.8512 15.449 20.6294 16.865 20.1858 18.2446Z" fill="white"/>
<path d="M45.0676 14.8682C44.8215 13.6576 44.3894 12.6297 43.7736 11.7822C43.1821 10.9347 42.4797 10.2449 41.6663 9.71282C40.853 9.18072 39.9657 8.7927 39.0045 8.55104C38.0675 8.30939 37.1317 8.18799 36.1947 8.18799C35.0614 8.18799 33.9395 8.39334 32.8304 8.80518C31.7213 9.21702 30.7231 9.82174 29.8358 10.6205C28.9728 11.4192 28.2704 12.3994 27.7285 13.5612C27.2109 14.723 26.9521 16.0663 26.9521 17.5911C26.9521 19.116 27.2109 20.4956 27.7285 21.6573C28.2461 22.8191 28.9358 23.7869 29.7989 24.5618C30.6619 25.3117 31.6474 25.8813 32.7565 26.2681C33.8899 26.6312 35.0486 26.8127 36.2317 26.8127C37.7602 26.8127 39.2505 26.5098 40.7051 25.9051C42.1596 25.2754 43.4039 24.344 44.4391 23.1096L43.6997 22.6013C43.4282 22.9882 43.0712 23.3637 42.6276 23.7268C42.1839 24.0898 41.7033 24.4041 41.1857 24.6707C40.6681 24.9373 40.1263 25.1552 39.559 25.3242C39.0172 25.4694 38.4869 25.542 37.9693 25.542C37.082 25.542 36.2317 25.3605 35.4183 24.9975C34.605 24.6344 33.8783 24.1386 33.2371 23.5089C32.5959 22.8793 32.0668 22.1293 31.6474 21.258C31.2534 20.3628 31.0316 19.3939 30.9819 18.3535H45.1046C45.1288 18.1595 45.1542 17.9179 45.1785 17.6274C45.2028 17.337 45.2155 17.0341 45.2155 16.7198C45.2155 16.3806 45.2028 16.0538 45.1785 15.7395C45.1542 15.4003 45.1173 15.1099 45.0676 14.8682ZM41.6294 17.2281H30.9819C30.8837 15.9449 30.9692 14.8081 31.2407 13.8153C31.5122 12.7988 31.8935 11.9399 32.3868 11.2377C32.9044 10.5354 33.4959 10.0033 34.1614 9.64021C34.8511 9.25333 35.5535 9.05932 36.2687 9.05932C36.9838 9.05932 37.6862 9.24085 38.376 9.6039C39.0657 9.96696 39.6699 10.4991 40.1875 11.2013C40.7051 11.8787 41.0991 12.7262 41.3706 13.7427C41.6663 14.7593 41.753 15.9211 41.6294 17.2281Z" fill="white"/>
<path d="M109.295 37.0792V37.0804L109.395 37.01L109.295 37.0792Z" fill="white"/>
<path d="M110.545 37.2348L110.544 37.2336L110.438 37.2949L110.545 37.2348Z" fill="white"/>
<path d="M95.6475 35.3719L95.5412 35.3118H95.5424L95.6475 35.3719V35.3708C95.8335 35.044 95.9282 34.6753 95.9225 34.3009C95.9225 33.9242 95.8196 33.5543 95.6267 33.2287L95.5239 33.2877L95.5204 33.29L95.6255 33.2276C95.4164 32.885 95.1184 32.6025 94.7625 32.4107C94.3316 32.1827 93.8475 32.0704 93.3588 32.0874H89.8975V39.0013H91.0944V36.5144H93.3623C93.9272 36.5144 94.4055 36.41 94.7914 36.191C94.7914 36.191 94.7926 36.191 94.7937 36.191C95.1484 36.0004 95.443 35.7168 95.6452 35.373L95.6475 35.3719ZM94.8041 34.3009H94.6863V34.3031C94.6932 34.5811 94.625 34.8568 94.4887 35.0996C94.3385 35.3583 94.1202 35.5716 93.8556 35.7168C93.5182 35.8949 93.1393 35.9823 92.7569 35.9675H92.7546H92.7523H91.0978V32.6308H92.7592L92.7546 32.5094L92.7592 32.6297C93.1301 32.6172 93.4974 32.7034 93.8232 32.8804C94.089 33.0268 94.3096 33.2412 94.4633 33.4999C94.6066 33.7438 94.6828 34.0184 94.6863 34.2997H94.8099L94.8053 34.2986L94.8041 34.3009Z" fill="white"/>
<path d="M148.749 37.1769C148.754 36.9159 148.703 36.6561 148.599 36.4156V36.4133L148.597 36.4111L148.487 36.4621H148.486L148.597 36.4111C148.486 36.1785 148.321 35.9754 148.115 35.8165L148.039 35.9119L148.114 35.8165C147.858 35.6214 147.576 35.4626 147.274 35.3446C146.867 35.1812 146.451 35.0439 146.025 34.9316C145.585 34.8057 145.216 34.6979 144.915 34.6094H144.914C144.673 34.5424 144.436 34.4551 144.208 34.3507L144.206 34.3496L144.163 34.446L144.156 34.4596L144.205 34.3496C144.071 34.2917 143.954 34.1998 143.864 34.0841C143.793 33.974 143.759 33.8447 143.764 33.7142V33.7086C143.762 33.5361 143.807 33.3659 143.893 33.215C143.983 33.0596 144.106 32.9246 144.255 32.8213C144.424 32.7045 144.611 32.616 144.809 32.5593L144.775 32.4435L144.782 32.4651L144.81 32.5593H144.811H144.812C145.031 32.4935 145.258 32.4594 145.487 32.4594H145.626C146.052 32.4855 146.474 32.5649 146.88 32.6965C147.279 32.8202 147.648 33.0278 147.958 33.3035L148.032 33.3682L148.112 33.3126L148.316 33.1708L148.437 33.0891L148.334 32.987C148.151 32.8055 147.946 32.6489 147.723 32.5218C147.508 32.3993 147.281 32.2972 147.047 32.2178C146.82 32.1406 146.587 32.0839 146.349 32.0464C146.12 32.0113 145.888 31.9897 145.656 31.9829H145.655H145.652C145.341 31.9829 145.033 32.0158 144.73 32.0805C144.424 32.1429 144.131 32.2507 143.859 32.4027C143.593 32.5513 143.365 32.7555 143.189 33.0029L143.29 33.0721L143.279 33.0653L143.189 33.0029H143.188V33.0051C143.002 33.2774 142.899 33.5962 142.889 33.9241C142.855 34.2815 142.944 34.64 143.144 34.9407V34.9429L143.146 34.9452L143.24 34.8805L143.145 34.9452C143.337 35.2096 143.584 35.4297 143.872 35.5874C144.173 35.7553 144.495 35.8846 144.827 35.9742C145.165 36.065 145.481 36.1456 145.777 36.217C146.12 36.2987 146.433 36.3861 146.717 36.4803H146.719H146.72C146.966 36.5574 147.203 36.6595 147.426 36.7866H147.427C147.586 36.8739 147.723 36.9976 147.823 37.1474C147.904 37.279 147.929 37.4355 147.896 37.5853V37.5876L147.895 37.5898C147.86 37.7816 147.775 37.9597 147.644 38.1061C147.515 38.2479 147.359 38.3636 147.184 38.4464C146.997 38.5349 146.797 38.5962 146.593 38.6302H146.592L146.607 38.7096L146.613 38.7494L146.592 38.6302C146.377 38.6665 146.158 38.6847 145.94 38.6858H145.802C145.764 38.6858 145.726 38.6836 145.689 38.6779H145.683L145.678 38.6767L145.672 38.7913V38.797L145.678 38.6767C145.262 38.6563 144.849 38.5814 144.453 38.4555C144.008 38.3046 143.604 38.055 143.271 37.7249L143.181 37.6364L143.093 37.7271L142.921 37.9075L143.01 37.9903L142.926 38.0777C143.338 38.4657 143.83 38.7618 144.368 38.9479L144.409 38.8333L144.405 38.8481L144.369 38.9468H144.371H144.372C144.904 39.1135 145.458 39.1964 146.015 39.1896C146.563 39.2043 147.108 39.1011 147.611 38.8855H147.612C147.947 38.7357 148.232 38.4964 148.433 38.1923C148.635 37.8894 148.745 37.5365 148.752 37.1735L148.749 37.1769Z" fill="white"/>
<path d="M141.23 38.0199C141.147 37.7454 141.03 37.481 140.882 37.2348C140.739 36.9954 140.56 36.7787 140.35 36.5938C140.218 36.477 140.068 36.3828 139.909 36.3068C140.175 36.2013 140.42 36.0492 140.63 35.8552C140.886 35.6158 141.076 35.3186 141.187 34.9884L141.095 34.9589L141.07 34.951L141.188 34.9884C141.293 34.6674 141.321 34.327 141.269 33.9934C141.22 33.6542 141.087 33.332 140.882 33.054L140.783 33.1244L140.882 33.0529C140.66 32.7568 140.369 32.5174 140.034 32.3563L139.98 32.4652L140.034 32.3574C139.631 32.1679 139.187 32.076 138.741 32.0885H135.399H135.275V32.2099L135.281 38.8822V39.0025H136.478V36.5155H138.596C138.789 36.5178 138.978 36.5643 139.149 36.6539C139.344 36.7572 139.512 36.9035 139.64 37.0817L139.74 37.0125L139.639 37.0817C139.802 37.3074 139.927 37.5582 140.006 37.8237C140.108 38.1663 140.157 38.5214 140.15 38.8788L140.147 39.0025H141.411L141.4 38.8709C141.373 38.5827 141.317 38.2979 141.231 38.0211L141.23 38.0199ZM138.131 32.6331C138.502 32.6206 138.87 32.7069 139.195 32.8827C139.461 33.0291 139.681 33.2435 139.835 33.5022C139.978 33.7461 140.055 34.0218 140.06 34.3043L140.177 34.302H140.183L140.06 34.3043C140.067 34.5823 139.998 34.858 139.861 35.1019C139.711 35.3606 139.492 35.5739 139.229 35.7179C138.892 35.8972 138.511 35.9834 138.129 35.9698H138.127H138.124H136.472V32.6331H138.131Z" fill="white"/>
<path d="M100.424 32.1475L100.391 32.0771H99.3881L99.3558 32.1475L96.2526 38.8288L96.1729 39.0002H96.8464L96.8799 38.9298L97.6251 37.3301H101.512L102.248 38.9298L102.28 39.0013H103.657L103.576 38.83L100.426 32.1486L100.424 32.1475ZM99.5811 33.1448L101.226 36.7277H97.9105L99.5811 33.1448Z" fill="white"/>
<path d="M125.78 32.0771H125.656V32.1985V37.6625L121.439 32.1259L121.402 32.0771H121.341H120.246H120.122V32.1985V38.8799V39.0013H120.246H120.62H120.744V38.8799V33.2072L125.134 38.9525L125.171 39.0013H125.232H126.145H126.267V38.8799V32.1985V32.0771H126.145H125.78Z" fill="white"/>
<path d="M142.916 37.9047L142.832 37.9919L142.921 38.0747L143.005 37.9875L142.916 37.9047Z" fill="white"/>
<path d="M110.938 38.8798L111.06 38.8685C111.034 38.5803 110.977 38.2955 110.893 38.0187L110.775 38.0539L110.787 38.0505L110.893 38.0199C110.808 37.7453 110.692 37.4821 110.545 37.2347C110.402 36.9954 110.221 36.7798 110.012 36.5949L109.941 36.6743L109.93 36.6845L110.012 36.5949C109.879 36.4791 109.73 36.3838 109.572 36.3078C109.838 36.2034 110.083 36.0503 110.293 35.8563C110.547 35.6169 110.738 35.3196 110.848 34.9895L110.731 34.952H110.734L110.848 34.9895C110.953 34.6684 110.98 34.328 110.93 33.9945C110.879 33.6552 110.747 33.333 110.542 33.0551L110.443 33.1254L110.542 33.0539C110.321 32.7578 110.031 32.5184 109.694 32.3562H109.693C109.29 32.1667 108.848 32.0748 108.402 32.0873H105.058H104.935V38.881V39.0024H106.131V36.5154H108.249C108.442 36.5177 108.632 36.5642 108.803 36.6527C108.998 36.756 109.165 36.9023 109.294 37.0804L109.394 37.0112L109.294 37.0816C109.456 37.3074 109.58 37.5581 109.66 37.8236C109.763 38.1662 109.811 38.5225 109.804 38.8787L109.802 39.0012H111.07L111.058 38.8696L110.935 38.881L110.938 38.8798ZM107.793 32.633C108.164 32.6205 108.531 32.7068 108.857 32.8838C109.123 33.0312 109.343 33.2445 109.498 33.5044C109.64 33.7483 109.716 34.0228 109.721 34.3042L109.834 34.3019H109.845L109.721 34.3042C109.727 34.5822 109.659 34.8579 109.524 35.1018C109.373 35.3605 109.155 35.5738 108.89 35.719C108.553 35.8971 108.174 35.9845 107.792 35.9697H107.789H107.787H106.129V32.633H107.793ZM109.604 33.442L109.597 33.4454L109.603 33.442H109.604Z" fill="white"/>
<path d="M111.59 32.0874H111.467V32.2077V32.5117V32.6331H111.59H114.523V38.8799V39.0013H114.645H115.596H115.72V38.8799V32.6331H118.652H118.774V32.5117V32.2077V32.0874H118.652H111.59Z" fill="white"/>
<path d="M128.191 32.0771H128.067V32.1985V38.8799V39.0013H128.191H133.071H133.195V38.8799V38.51V38.3898H133.071H129.265V35.6317H131.851H131.975V35.5114V35.1404V35.0202H131.851H129.265V32.6898H133.071H133.195V32.5684V32.1985V32.0771H133.071H128.191Z" fill="white"/>
<path d="M110.542 33.0539L110.541 33.0527L110.441 33.1242L110.542 33.0539Z" fill="white"/>
<path d="M148.115 35.8178L148.114 35.8167L148.039 35.9131L148.115 35.8178Z" fill="white"/>
</g>
<defs>
<clipPath id="clip0_198_29">
<rect width="150" height="49" fill="white"/>
</clipPath>
</defs>
</svg>
